PathFileType	4	(X/Y/Z)	 s04c0202.trc
DataRate	CameraRate	NumFrames	NumMarkers	Units	OrigDataRate	OrigDataStartFrame	OrigNumFrames
200	200	4	50	mm	200	251	2000
Frame#	Time	racr			lacr			c7			jug			rlel			rdr			llel			ldr			s2			lic			ric			lasi			rasi			rpsi			lpsi			rgt			lgt			rth1			rth2			rth3			rth4			rlfc			rmfc			rsh1			rsh2			rsh3			rsh4			rlmal			rmmal			rcal			rtoe			rmt5			lth1			lth2			lth4			lth3			llfc			lmfc			lsh1			lsh2			lsh3			lsh4			llmal			lmmal			lcal			ltoe			lmt5			SBIKE			LBIKE			RBIKE			
		X1	Y1	Z1	X2	Y2	Z2	X3	Y3	Z3	X4	Y4	Z4	X5	Y5	Z5	X6	Y6	Z6	X7	Y7	Z7	X8	Y8	Z8	X9	Y9	Z9	X10	Y10	Z10	X11	Y11	Z11	X12	Y12	Z12	X13	Y13	Z13	X14	Y14	Z14	X15	Y15	Z15	X16	Y16	Z16	X17	Y17	Z17	X18	Y18	Z18	X19	Y19	Z19	X20	Y20	Z20	X21	Y21	Z21	X22	Y22	Z22	X23	Y23	Z23	X24	Y24	Z24	X25	Y25	Z25	X26	Y26	Z26	X27	Y27	Z27	X28	Y28	Z28	X29	Y29	Z29	X30	Y30	Z30	X31	Y31	Z31	X32	Y32	Z32	X33	Y33	Z33	X34	Y34	Z34	X35	Y35	Z35	X36	Y36	Z36	X37	Y37	Z37	X38	Y38	Z38	X39	Y39	Z39	X40	Y40	Z40	X41	Y41	Z41	X42	Y42	Z42	X43	Y43	Z43	X44	Y44	Z44	X45	Y45	Z45	X46	Y46	Z46	X47	Y47	Z47	X48	Y48	Z48	X49	Y49	Z49	X50	Y50	Z50	
251	1.2550	470.915531	1478.210972	-103.835802	475.845492	1470.086720	-397.440165	451.151610	1525.097169	-256.557459	469.195205	1377.965768	-252.799541	502.477282	1163.906658	-3.921384	801.400388	1028.968131	-186.285707	506.542246	1182.424828	-498.323379	650.675581	845.610010	-474.852062	-52.496260	1180.409860	-277.579673	112.268992	1195.504753	-421.694995	104.413663	1168.715863	-109.060541	144.841355	1144.582697	-379.374548	150.459491	1116.997427	-152.457392	-20.582470	1215.434234	-227.414109	-24.238539	1225.873323	-302.605241	50.390526	1106.135513	-99.170857	71.105683	1127.841321	-469.855461	129.485613	958.889394	-77.248828	184.311145	890.156521	-86.101185	200.211658	806.011495	-91.626371	213.617378	905.476468	-103.825270	245.232332	667.826493	-118.463734	221.149424	651.553268	-229.691326	182.818113	556.497554	-94.676674	167.701263	467.151717	-109.792708	109.628679	403.353565	-116.254109	196.565427	457.888818	-134.594206	56.903250	259.925740	-127.425002	78.619907	265.653680	-213.081591	-16.136632	232.871657	-169.499832	279.831238	185.072494	-151.304270	208.929934	168.221876	-98.400131	134.231018	1077.498674	-477.956819	219.862638	1069.524781	-483.528665	232.948703	1100.305294	-467.878796	292.212691	1018.476767	-495.746813	431.603093	937.396804	-478.426805	468.005998	920.313621	-369.038774	388.646859	831.320893	-492.775278	360.835324	752.690340	-465.653365	294.908515	693.319774	-457.969647	384.772024	743.830514	-436.110651	208.370398	578.416591	-438.224947	208.341191	586.392634	-349.242352	124.095140	568.219283	-392.451990	419.437511	509.004645	-403.042818	343.223744	483.399488	-463.338462	-141.693286	922.818399	-283.302643	-3.266370	85.573034	-484.715421	-15.011876	80.422438	-84.254910	
252	1.2600	470.934107	1478.194300	-103.824137	475.894493	1470.105524	-397.428175	451.143203	1525.113458	-256.510666	469.235943	1377.970648	-252.796771	502.349883	1163.912719	-4.033425	801.371714	1028.960496	-186.275099	506.561454	1182.444306	-498.323602	650.662798	845.598561	-474.860743	-52.507027	1180.423684	-277.579926	112.259193	1195.466006	-421.656103	104.559074	1168.693204	-108.525935	144.846371	1144.583040	-379.388210	150.460061	1116.980076	-152.451292	-20.574015	1215.435117	-227.404102	-24.224089	1225.876145	-302.626776	50.395852	1106.138360	-99.176617	71.087076	1127.832545	-469.868737	129.454148	958.875721	-77.235552	184.283331	890.155148	-86.091564	200.197275	805.983319	-91.632335	213.607564	905.482761	-103.817182	245.198977	667.829196	-118.461497	221.111068	651.552321	-229.689384	182.810929	556.483934	-94.665222	167.709885	467.120687	-109.774009	109.642115	403.308221	-116.259829	196.530214	457.884076	-134.621145	56.930404	259.885657	-127.431109	78.647616	265.640532	-213.070775	-16.110952	232.820817	-169.515171	279.867159	185.068655	-151.303024	208.971383	168.210274	-98.381672	134.219862	1077.504757	-477.956793	219.872939	1069.522601	-483.516462	232.954360	1100.310894	-467.884869	292.223321	1018.475229	-495.741085	431.589246	937.406254	-478.427378	467.986937	920.317194	-369.016651	388.646227	831.339356	-492.774027	360.829018	752.718687	-465.678025	294.903724	693.337371	-457.976027	384.747258	743.839320	-436.115957	208.352211	578.440483	-438.224231	208.306003	586.427946	-349.262300	124.063401	568.259444	-392.455943	419.398831	509.016366	-403.045689	343.183601	483.418832	-463.352531	-141.751085	922.795442	-283.317598	-3.259315	85.583515	-484.717859	-15.006445	80.413292	-84.239355	
253	1.2650	470.943262	1478.210808	-103.852468	475.937651	1470.115506	-397.406112	451.138797	1525.119633	-256.494389	469.282255	1377.964238	-252.766007	502.375399	1163.913753	-4.037694	801.197616	1028.776836	-186.581322	506.580409	1182.468635	-498.334026	650.678418	845.584789	-474.869037	-52.506365	1180.404952	-277.581635	112.273936	1195.474430	-421.683912	104.570054	1168.651011	-108.532914	144.854406	1144.576980	-379.395023	150.463193	1116.953517	-152.451879	-20.579341	1215.420376	-227.425375	-24.231586	1225.871523	-302.621737	50.396603	1106.139856	-99.182696	71.111733	1127.826192	-469.866401	129.435555	958.876057	-77.233750	184.250312	890.140303	-86.082658	200.151491	805.965654	-91.622392	213.575395	905.440615	-103.800493	245.175114	667.808936	-118.462666	221.077461	651.539693	-229.678539	182.781640	556.466118	-94.663917	167.703358	467.116526	-109.785479	109.634087	403.295712	-116.260788	196.527625	457.858569	-134.617088	56.944019	259.837478	-127.431753	78.642179	265.600007	-213.074525	-16.072506	232.777043	-169.506935	279.900767	185.077408	-151.297036	208.985301	168.199626	-98.391605	134.231361	1077.497511	-477.953327	219.888356	1069.500833	-483.493234	232.955779	1100.331172	-467.879610	292.224175	1018.483655	-495.739548	431.604470	937.424285	-478.432346	468.009855	920.324096	-369.022802	388.638014	831.354877	-492.792521	360.821059	752.716748	-465.662281	294.881956	693.370167	-457.990767	384.738629	743.868234	-436.125562	208.321972	578.474286	-438.228432	208.282405	586.446535	-349.251074	124.043256	568.300158	-392.459446	419.354388	509.034944	-403.050579	343.141779	483.428570	-463.346067	-141.720572	922.769322	-283.398288	-3.276900	85.585210	-484.715672	-15.020689	80.424330	-84.249066	
254	1.2700	470.986210	1478.221027	-103.862156	475.973043	1470.128882	-397.362266	451.130845	1525.123323	-256.471858	469.334193	1377.960969	-252.761216	502.385224	1163.930417	-4.018576	801.407102	1029.019325	-186.234112	506.591769	1182.468814	-498.324498	650.665397	845.587908	-474.847597	-52.495353	1180.408385	-277.602704	112.299022	1195.481086	-421.696577	104.571103	1168.653623	-108.539857	144.840641	1144.546592	-379.356511	150.457395	1116.887339	-152.491388	-20.579362	1215.420302	-227.425374	-24.235862	1225.872388	-302.614968	50.396930	1106.131664	-99.188726	71.111990	1127.834079	-469.865110	129.404329	958.854741	-77.228907	184.234668	890.127030	-86.079826	200.115386	805.953218	-91.613672	213.556698	905.414390	-103.792182	245.144091	667.807293	-118.463589	220.978136	651.553635	-229.805460	182.767022	556.445774	-94.664418	167.693994	467.094424	-109.765680	109.646102	403.255779	-116.256918	196.534554	457.844291	-134.605734	56.961667	259.809013	-127.421546	78.720176	265.539895	-213.065045	-16.046840	232.743919	-169.513046	279.941554	185.074050	-151.283151	209.044842	168.151516	-98.366636	134.237839	1077.510238	-477.948668	219.881725	1069.540815	-483.523561	232.955598	1100.343256	-467.894589	292.230760	1018.488263	-495.716595	431.619314	937.418593	-478.433569	468.026547	920.324266	-369.030594	388.634945	831.375514	-492.791701	360.801977	752.733207	-465.663234	294.859826	693.384928	-458.005192	384.728355	743.869891	-436.115230	208.294410	578.506536	-438.236580	208.236615	586.484221	-349.271309	123.997273	568.338624	-392.464904	419.303442	509.049230	-403.059276	343.105037	483.439318	-463.356707	-141.805600	922.767737	-283.447592	-3.262357	85.581433	-484.712242	-15.017162	80.446439	-84.259748	
